<svg xmlns="http://www.w3.org/2000/svg"><style>:root svg:not(:target){display:none}</style><svg viewBox="0 0 71 227" fill="none" id="1"><path d="M40.37 227v-187.6c-.18.19-2.33.75-6.44 1.68-3.92.93-8.4 1.87-13.44 2.8-5.04.93-9.52 1.77-13.44 2.52s-5.97 1.12-6.16 1.12v-22.68c3.18-.75 6.82-1.77 10.92-3.08 4.3-1.3 8.59-2.9 12.88-4.76a63.87 63.87 0 0 0 12.6-7 43.3 43.3 0 0 0 10.36-9.8h22.68v226.8h-29.96Z" fill="#F2F2F2"></path></svg><svg viewBox="0 0 113 229" fill="none" id="2"><path d="M.62 229v-21.28l57.68-89.88c4.3-6.72 8.22-12.97 11.76-18.76a86.72 86.72 0 0 0 8.96-18.2c2.43-6.53 3.64-14 3.64-22.4 0-10.45-1.68-18.67-5.04-24.64-3.36-5.97-9.24-8.96-17.64-8.96-7.09 0-12.6 1.96-16.52 5.88s-6.62 9.05-8.12 15.4a89.09 89.09 0 0 0-2.24 20.44v7.56h-29.96v-7.84c0-13.63 1.78-25.3 5.32-35 3.74-9.9 9.62-17.55 17.64-22.96 8.22-5.41 19.04-8.12 32.48-8.12 18.3 0 31.92 5.23 40.88 15.68 8.97 10.27 13.45 24.55 13.45 42.84 0 9.7-1.22 18.2-3.64 25.48a95.62 95.62 0 0 1-8.96 20.44 412.22 412.22 0 0 1-12.33 19.6l-52.08 79.52h71.69v25.2h-106.97Z" fill="#F2F2F2"></path></svg><svg viewBox="0 0 112 232" fill="none" id="3"><path d="M55.92 231.52c-12.32 0-22.59-2.33-30.8-7a44.06 44.06 0 0 1-18.48-20.16c-4.1-8.77-6.16-19.13-6.16-31.08v-7.56h29.68v5.04a88.2 88.2 0 0 0 2.24 18.2c1.5 5.41 4.01 9.7 7.56 12.88 3.73 3.17 9.05 4.76 15.96 4.76 7.28 0 12.79-1.68 16.52-5.04 3.73-3.55 6.25-8.5 7.56-14.84 1.3-6.35 1.96-13.63 1.96-21.84 0-11.95-2.24-21.65-6.72-29.12-4.3-7.65-11.95-11.85-22.96-12.6a7.27 7.27 0 0 0-2.24-.28h-1.96v-29.96h3.92c10.64-.37 18.3-3.17 22.96-8.4 4.67-5.23 7-13.9 7-26.04 0-10.27-1.77-18.48-5.32-24.64-3.36-6.16-10.17-9.24-20.44-9.24-10.27 0-17.08 3.45-20.44 10.36-3.36 6.72-5.23 15.4-5.6 26.04v4.76h-29.68v-7.56c0-12.13 2.05-22.5 6.16-31.08a44.32 44.32 0 0 1 18.48-19.88c8.4-4.67 18.76-7 31.08-7 12.5 0 22.87 2.33 31.08 7a44.05 44.05 0 0 1 18.48 20.16c4.1 8.59 6.16 18.95 6.16 31.08 0 13.63-2.98 24.55-8.96 32.76-5.79 8.21-13.63 13.81-23.52 16.8 6.9 2.05 12.7 5.6 17.36 10.64 4.86 5.04 8.59 11.48 11.2 19.32 2.61 7.65 3.92 16.61 3.92 26.88 0 13.44-1.86 25.2-5.6 35.28-3.73 9.9-9.7 17.64-17.92 23.24-8.21 5.41-19.04 8.12-32.48 8.12Z" fill="#F2F2F2"></path></svg><svg viewBox="0 0 121 227" fill="none" id="4"><path d="M66.32 227v-60.76h-65.8v-31.36l59.08-134.68h35.28v139.44h25.48v26.6h-25.48v60.76h-28.56Zm-36.96-87.36h36.96v-103.04l-36.96 103.04Z" fill="#F2F2F2"></path></svg><svg viewBox="0 0 27 35" fill="none" id="academy-logo"><g clip-path="url(#academy-logo_0)"><path d="m13.64.52-.14-.02-13.5 1.4v24.61l13.5 7.99 13.5-7.99v-24.6l-13.36-1.4Zm11.6 25-11.74 6.94-11.73-6.94v-10.1l11.68 6.93.02 1.25-8.02-4.75v1.23l8.04 4.8.02 1.3-8.05-4.76v1.22l8.04 4.81 8.12-4.83v-5.21l3.62-2.15v10.26Zm0-11.57-3.23 1.88-1.48.88-7.06-4.19-.01 1.23 6.04 3.57-.06.03-.13.07-.86.5-4.98-2.95-.01 1.22 3.93 2.33-.93.61-.02.01-2.97-1.74-.01 1.23 1.94 1.13-1.98 1.19-11.62-6.87 11.63-6.96 11.8 6.83Zm0-1.22-11.8-6.92-11.67 6.91v-9.23l11.73-1.23 11.73 1.23v9.24Z" fill="#666"></path></g><defs><clipPath id="academy-logo_0"><path fill="#fff" transform="translate(0 .5)" d="M0 0h27v34h-27z"></path></clipPath></defs></svg><svg viewBox="0 0 140 194" fill="none" id="black-cat"><g clip-path="url(#black-cat_0)"><path d="M109.68 0h-.76a7 7 0 0 0-2.92 3.18c-1.13 2.16-2 4.45-2.58 6.82a3.26 3.26 0 0 1-2.96 2.68 14.68 14.68 0 0 0-10.46 7.56 54.62 54.62 0 0 0-3.7 8c-2.84 7.36-5.02 14.96-7.7 22.38-1.26 3.38-1.32 3.38-5.12 3.38-4.54 0-4.22-.7-4.28 4.3 0 1.58.48 2.38 2.16 2.3.52 0 1.3-.26 1.5.42.2.68-.48.98-.88 1.38a18 18 0 0 1-8.66 4.88c-3.8 1.02-7.68 1.82-11.38 3.06-9.5 3.18-18.28 7.62-25.12 15.14a56 56 0 0 0-9.48 15.68c-7.34 17.28-10.9 35.48-13.66 53.86a375.77 375.77 0 0 0-2.92 26c-.36 4.28-.76 8.62-.76 12.98h66.66a4.36 4.36 0 0 0-.46-2.56 10 10 0 0 0-7.66-6.14c-1.4-.32-1.56-.74-.7-1.84a20.7 20.7 0 0 0 3.18-6.2c3.26-9.62 4.52-19.66 6.1-29.6a60 60 0 0 1 6.88-21.66 43.2 43.2 0 0 1 11.18-12.74c1.66-1.26 1.72-1.26 2 .88.2 1.42.24 2.88.34 4.32.6 9.45.48 18.93-.36 28.36-.76 7.31-.86 14.67-.3 22 .8 8.5 2.31 16.93 4.54 25.18h26.6a10.82 10.82 0 0 0-8.48-8.88 18 18 0 0 0-7.52.4c-1.2.28-1.7 0-1.8-1.3a112.7 112.7 0 0 1 2-31.64c2.67-12 4.71-24.14 6.12-36.36a35.5 35.5 0 0 1 4.56-14c2.38-4.24 4.46-8.64 6.8-12.9a11.75 11.75 0 0 0 .84-10.38c-.54-1.42-1.06-2.86-1.72-4.22-2-3.9-4-7.76-5.84-11.7-.98-2-.76-2.24 1.42-2.3 3.26 0 3.26 0 3.32-3.28v-1.32c0-1.38-.52-2.14-2-2h-3.04c-1.38 0-1.78-.58-1.44-2a12.48 12.48 0 0 1 10.26-8.86 44 44 0 0 1 13.24.86 2 2 0 0 0 2.5-1.28c.8-2 1.68-4 2.58-6a2 2 0 0 0-.2-2.28c-6.4-8.12-13.34-15.7-22.8-20.56a2.98 2.98 0 0 1-1.76-2.24 39.16 39.16 0 0 0-2.54-8.32 7 7 0 0 0-2.82-3.44Z" fill="#000"></path></g><defs><clipPath id="black-cat_0"><path fill="#fff" d="M0 0h140v194h-140z"></path></clipPath></defs></svg><svg viewBox="0 0 268 112" fill="none" id="black-pantere"><g clip-path="url(#black-pantere_0)"><path d="M246.24 11.51a30.4 30.4 0 0 1 9-9.2c2-1.4 3.2-1.4 4.4 1.2 1.6 3.8 3 7.8 1.8 12a4.59 4.59 0 0 0 .8 4.2c1.2 1.6 2.2 3.2 3.2 4.6a12.54 12.54 0 0 1 1.8 12.4 10.86 10.86 0 0 0-.4 6.2c.4 1.98.4 4.02 0 6a7.5 7.5 0 0 1-5.4 6.4 10.42 10.42 0 0 0-6.4 4 2.09 2.09 0 0 1-1.8 1c-2.4.4-8.4-5-8.4-7.4v-1.2c.2-7.2-.2-7.8-6.8-10.8a8.78 8.78 0 0 1-3.6-2.4c-1.2-1.6-2.8-1.4-4.6-.8-1.8.6-2.8 1.8-2.6 3.8.6 4.85.8 9.73.6 14.6.01.56.15 1.1.4 1.6 6.2 9 8.6 19.6 11.6 29.8 2.4 7.8 6.8 12 14.8 12.6 1.28.1 2.55.3 3.8.6a8.32 8.32 0 0 1 6.8 6.4c1.4 4.2.6 5.2-3.6 5.2h-13a6.48 6.48 0 0 1-4.6-1.6 23.39 23.39 0 0 0-6.8-4 14.53 14.53 0 0 1-6.8-5.2 57.17 57.17 0 0 0-8-9c-5.6-5.8-11.6-11.4-16.8-17.4a22.77 22.77 0 0 1-6.4-15.2c0-1.8-.4-2.6-2.4-1.8-.6.38-1.3.6-2 .6-5.6 0-8.4 3.4-10.4 8.4-1.8 4.2-4.2 8.2-6.4 12.4a20.8 20.8 0 0 0-2 8.4c0 4.8 1.2 6.4 5.6 8 2.8 1 5.4 2 6.8 4.8 1.6 3.2 1.2 4-2.2 4.2h-13.6a3.76 3.76 0 0 1-3.8-2.2l-3.6-6a12.1 12.1 0 0 1-1.4-10.8c.86-3.47.93-7.1.2-10.6a16.84 16.84 0 0 1 3.4-14c1.2-1.4 1.2-2-.8-2.4a100.13 100.13 0 0 1-23.74-8.25.2.2 0 0 1-.06-.15c-6.4-2.4-7.6-2-9.4 4.6-1.6 5.6-3.2 11.2-4.4 17-1.4 6.4.2 12.4 2.2 18.4.8 2.4 3.2 2.2 5 2.8 4 1.2 7.4 2.8 9 7 1.4 3.2 1.2 3.6-2.2 3.6-3.4 0-6.8-.2-10.4 0-3.04.06-6-.93-8.4-2.8-9.6-6.4-12.4-16.2-13.2-26.8-.4-6.6-4-11.8-8.2-16.8-.8-1-1.6-1.4-2.8-.6a88.62 88.62 0 0 1-13.4 6 53.42 53.42 0 0 0-24.4 17.6 21.26 21.26 0 0 0-4.4 10.2c-.6 3.6.4 5.2 4 6.2s5.4 3 5.8 6.8c.2 1.6-.4 2.4-2 2.4h-16.2a3.3 3.3 0 0 1-2.6-1.6c-2.52-3.1-3.86-7-3.8-11-.1-6.9.5-13.8 1.8-20.6a12.6 12.6 0 0 1 6.8-9.6c11.8-5.6 18-16.2 23.6-27.2 1.2-2.2.2-2.6-1.8-2.4-5.6.78-10.9 2.98-15.4 6.4-5.9 4.3-11.45 9.05-16.6 14.2a33.34 33.34 0 0 1-20.6 9.8c-14.6.8-21.4-7.4-20.8-20.6.13-4.5 1.83-8.81 4.8-12.2a8.5 8.5 0 0 1 9-3c3 .8 3.8 2.4 2.6 5.4-.6 1.2-1.4 2.2-2 3.4a15 15 0 0 0-2 4c-2.2 6 .8 10.2 7 10.8 6.6.6 12-2.2 17-6.2a89.88 89.88 0 0 0 16-16.6 41.58 41.58 0 0 1 28.8-16.2c4.6-.6 8.6-2.6 13-3.8a83.01 83.01 0 0 1 25.4-3.6 26 26 0 0 0 11.6-2.2c9.8-4 20-4 30.2-2 8 1.6 16 3.6 23.8 5.6 4.64.87 9.41.73 14-.4a135.6 135.6 0 0 1 26.8-4c5.92-.28 11.83.88 17.2 3.4 4 1.8 4 1.8 3 5.6Z" fill="#000"></path></g><defs><clipPath id="black-pantere_0"><path fill="#fff" d="M0 0h268v112h-268z"></path></clipPath></defs></svg><svg viewBox="0 0 50 53" fill="none" id="cat-weightless"><circle cx="25" cy="28" r="25" fill="#68B738"></circle><g clip-path="url(#cat-weightless_0)"><path d="M35.2 0h-.2c-.32.19-.59.47-.74.82a8.03 8.03 0 0 0-.67 1.76.84.84 0 0 1-.76.69 3.77 3.77 0 0 0-2.69 1.95c-.37.66-.69 1.35-.95 2.06-.73 1.9-1.29 3.85-1.98 5.77-.32.87-.34.87-1.32.87-1.16 0-1.08-.18-1.1 1.1 0 .41.13.62.56.6.13 0 .33-.07.39.1.05.18-.13.26-.23.36a4.63 4.63 0 0 1-2.23 1.26c-.97.26-1.97.47-2.92.79-2.45.82-4.7 1.96-6.46 3.9a14.44 14.44 0 0 0-2.44 4.04c-1.89 4.46-2.8 9.15-3.51 13.88a97.06 97.06 0 0 0-.75 6.7c-.1 1.1-.2 2.23-.2 3.35h17.14c.03-.23-.01-.46-.12-.66a2.58 2.58 0 0 0-1.97-1.58c-.36-.08-.4-.2-.18-.48.36-.48.64-1.02.82-1.6.84-2.47 1.16-5.06 1.57-7.62.23-1.96.83-3.85 1.77-5.59a11.13 11.13 0 0 1 2.87-3.28c.43-.32.45-.32.52.23.05.36.06.74.09 1.11a48.2 48.2 0 0 1-.1 7.31c-.2 1.88-.22 3.78-.07 5.67.2 2.2.59 4.36 1.16 6.49h6.84a2.8 2.8 0 0 0-2.18-2.29c-.64-.1-1.3-.07-1.93.1-.31.08-.44 0-.46-.33-.22-2.73-.04-5.47.51-8.16a91.8 91.8 0 0 0 1.57-9.37c.14-1.27.54-2.5 1.18-3.6.6-1.1 1.14-2.23 1.74-3.33a3.03 3.03 0 0 0 .22-2.67c-.14-.37-.27-.74-.44-1.1-.52-1-1.03-2-1.5-3-.26-.52-.2-.59.36-.6.84 0 .84 0 .86-.85v-.34c0-.35-.14-.55-.52-.51h-.78c-.36 0-.46-.15-.37-.52a3.22 3.22 0 0 1 2.64-2.28 11.3 11.3 0 0 1 3.4.22.51.51 0 0 0 .65-.33 40 40 0 0 1 .66-1.55.52.52 0 0 0-.05-.58c-1.65-2.1-3.43-4.05-5.87-5.3a.77.77 0 0 1-.45-.58 9.8 9.8 0 0 0-.65-2.14 1.8 1.8 0 0 0-.73-.89Z" fill="#000"></path></g><defs><clipPath id="cat-weightless_0"><path fill="#fff" transform="translate(7)" d="M0 0h36v50h-36z"></path></clipPath></defs></svg><svg viewBox="0 0 27 31" fill="none" id="clock"><path d="M6.12 0c-1.07 0-1.07 1.58 0 1.58h6.67v1.6a13.21 13.21 0 0 0-12.23 13.3c0 4.02 1.75 7.64 4.52 10.07.48.43.54 1.18.1 1.64l-1.53 1.55c-.75.69.36 1.75 1.03 1l2-2.03c.36-.34.88-.43 1.32-.21a12.79 12.79 0 0 0 11.1.06c.43-.21.96-.13 1.3.21l1.95 1.97c.68.64 1.66-.31 1.04-1l-1.45-1.48c-.45-.45-.38-1.2.1-1.63a13.47 13.47 0 0 0 4.62-10.16 13.2 13.2 0 0 0-12.27-13.28v-1.6h6.67c1.06 0 1.06-1.59 0-1.59h-14.94Zm-4.12 16.47c0-6.53 5.2-11.82 11.6-11.82 6.41 0 11.6 5.3 11.6 11.82 0 6.55-5.19 11.85-11.6 11.85-6.4 0-11.6-5.3-11.6-11.85Zm10.8-8.09c0-1.1 1.66-1.1 1.66 0v8.63c0 .23-.09.44-.25.6a.86.86 0 0 1-.6.25.82.82 0 0 1-.57-.23.8.8 0 0 1-.24-.56v-8.69Zm-5 2.62c.31 0 .61-.12.83-.34a1.14 1.14 0 0 0-.82-1.96c-.3.02-.56.16-.75.37a1.14 1.14 0 0 0 .75 1.92Zm11.6 0c.31 0 .6-.12.82-.34a1.14 1.14 0 0 0-.82-1.96 1.14 1.14 0 0 0 0 2.29Zm-10.43 12.59c0 1.53-2.33 1.53-2.33 0s2.33-1.53 2.33 0Zm4.64 3.44a1.18 1.18 0 0 0 1.17-.68 1.14 1.14 0 0 0-.7-1.56 1.17 1.17 0 0 0-1.22.32 1.14 1.14 0 0 0 .75 1.92Zm-8.12-10.39a1.14 1.14 0 0 1-.69 1.17 1.17 1.17 0 0 1-1.57-.7 1.14 1.14 0 0 1 .32-1.2 1.17 1.17 0 0 1 1.94.73Zm17.39 1.15a1.17 1.17 0 0 0 1.17-.68 1.14 1.14 0 0 0-.7-1.55 1.17 1.17 0 0 0-1.22.32 1.14 1.14 0 0 0 .75 1.91Zm-2.32 5.8c0 1.53-2.32 1.53-2.32 0s2.32-1.53 2.32 0Z" fill="#fff"></path></svg><svg viewBox="0 0 20 20" fill="none" id="cross"><path transform="matrix(.68659 -.72705 .68659 .72705 2.002 20)" stroke="#000" stroke-width="1.5" d="M0-.75h24.76"></path><path transform="matrix(.68659 .72705 -.68659 .72705 1 2)" stroke="#000" stroke-width="1.5" d="M0-.75h24.76"></path></svg><svg viewBox="0 0 25 30" fill="none" id="cutlery"><path fill-rule="evenodd" clip-rule="evenodd" d="M18.62.08a1 1 0 0 1 1.09.21c.9.91 2.1 2.88 3.06 5.92a42.6 42.6 0 0 1 1.73 12.79 1 1 0 0 1-1 1h-3.5v9a1 1 0 1 1-2 0v-28a1 1 0 0 1 .62-.92Zm1.38 17.92h2.5a39.62 39.62 0 0 0-1.64-11.19 22.4 22.4 0 0 0-.86-2.3v13.49Zm-14-18a1 1 0 0 1 1 1v28a1 1 0 1 1-2 0v-28a1 1 0 0 1 1-1Z" fill="#fff"></path><path fill-rule="evenodd" clip-rule="evenodd" d="M1.5 0a1 1 0 0 1 1 1v5.5c0 .56.2 1.32.7 1.92.48.56 1.31 1.08 2.8 1.08a1 1 0 1 1 0 2 5.41 5.41 0 0 1-4.33-1.8 5.07 5.07 0 0 1-1.17-3.2v-5.5a1 1 0 0 1 1-1Z" fill="#fff"></path><path fill-rule="evenodd" clip-rule="evenodd" d="M10.5 0a1 1 0 0 0-1 1v5.5c0 .56-.2 1.32-.7 1.92-.48.56-1.31 1.08-2.8 1.08a1 1 0 0 0 0 2 5.4 5.4 0 0 0 4.33-1.8 5.07 5.07 0 0 0 1.17-3.2v-5.5a1 1 0 0 0-1-1Z" fill="#fff"></path></svg><svg viewBox="0 0 80 80" fill="none" id="icon-clock"><path fill="#68B738" d="M0 0h80v80h-80z"></path><path d="M32.54 25c-1.06 0-1.06 1.58 0 1.58h6.64v1.6c-6.8.44-12.18 6.23-12.18 13.3 0 4.02 1.74 7.64 4.5 10.07.47.43.54 1.18.1 1.64l-1.53 1.55c-.74.69.36 1.75 1.03 1l2-2.03c.35-.34.87-.43 1.3-.21a12.7 12.7 0 0 0 11.07.06c.43-.21.96-.13 1.3.21l1.94 1.97c.68.64 1.65-.31 1.04-1l-1.45-1.48c-.44-.45-.38-1.2.1-1.63a13.46 13.46 0 0 0 4.6-10.16c0-7.07-5.41-12.87-12.22-13.28v-1.6h6.64c1.06 0 1.06-1.59 0-1.59h-14.88Zm-4.1 16.47a11.7 11.7 0 0 1 11.56-11.82c6.38 0 11.55 5.3 11.55 11.82 0 6.55-5.17 11.85-11.55 11.85-6.38 0-11.57-5.3-11.57-11.85Zm10.75-8.09c0-1.1 1.66-1.1 1.66 0v8.63a.84.84 0 0 1-.85.85.81.81 0 0 1-.8-.8v-8.68Zm-4.97 2.62a1.16 1.16 0 0 0 1.16-1.15 1.15 1.15 0 0 0-1.16-1.15 1.16 1.16 0 0 0-1.05 1.14 1.15 1.15 0 0 0 1.05 1.15Zm11.55 0a1.16 1.16 0 0 0 1.16-1.15 1.15 1.15 0 0 0-1.16-1.15 1.16 1.16 0 0 0-1.05 1.14 1.15 1.15 0 0 0 1.05 1.15Zm-10.4 12.59c0 1.53-2.31 1.53-2.31 0s2.32-1.53 2.32 0Zm4.63 3.44a1.17 1.17 0 0 0 1.17-.68 1.14 1.14 0 0 0-.7-1.56 1.17 1.17 0 0 0-1.22.32 1.15 1.15 0 0 0 .75 1.92Zm-8.09-10.39a1.14 1.14 0 0 1-.68 1.17 1.17 1.17 0 0 1-1.57-.7 1.14 1.14 0 0 1 .32-1.2 1.16 1.16 0 0 1 1.93.73Zm17.33 1.15a1.16 1.16 0 0 0 1.17-.68 1.14 1.14 0 0 0-.7-1.55 1.17 1.17 0 0 0-1.22.32 1.15 1.15 0 0 0 .75 1.91Zm-2.31 5.8c0 1.53-2.32 1.53-2.32 0s2.32-1.53 2.32 0Z" fill="#fff"></path></svg><svg viewBox="0 0 80 80" fill="none" id="icon-cutlery"><path fill="#68B738" d="M0 0h80v80h-80z"></path><path fill-rule="evenodd" clip-rule="evenodd" d="M46.62 25.08a1 1 0 0 1 1.09.21c.9.91 2.1 2.88 3.06 5.92a42.6 42.6 0 0 1 1.73 12.79 1 1 0 0 1-1 1h-3.5v9a1 1 0 1 1-2 0v-28a1 1 0 0 1 .62-.92Zm1.38 17.92h2.5a39.62 39.62 0 0 0-1.64-11.19 22.4 22.4 0 0 0-.86-2.3v13.49Zm-14-18a1 1 0 0 1 1 1v28a1 1 0 1 1-2 0v-28a1 1 0 0 1 1-1Z" fill="#fff"></path><path fill-rule="evenodd" clip-rule="evenodd" d="M29.5 25a1 1 0 0 1 1 1v5.5c0 .56.2 1.32.7 1.92.48.56 1.31 1.08 2.8 1.08a1 1 0 1 1 0 2 5.41 5.41 0 0 1-4.33-1.8 5.07 5.07 0 0 1-1.17-3.2v-5.5a1 1 0 0 1 1-1Z" fill="#fff"></path><path fill-rule="evenodd" clip-rule="evenodd" d="M38.5 25a1 1 0 0 0-1 1v5.5c0 .56-.2 1.32-.7 1.92-.48.56-1.31 1.08-2.8 1.08a1 1 0 0 0 0 2 5.4 5.4 0 0 0 4.33-1.8 5.07 5.07 0 0 0 1.17-3.2v-5.5a1 1 0 0 0-1-1Z" fill="#fff"></path></svg><svg viewBox="0 0 80 80" fill="none" id="icon-leaf"><path fill="#68B738" d="M0 0h80v80h-80z"></path><g clip-path="url(#icon-leaf_0)"><path d="M52.78 26.77a.95.95 0 0 0-.92-.77c-4.94.03-16.95.92-21.8 8.38-2.51 3.88-2.73 8.91-.64 14.96l.07.13a25.92 25.92 0 0 0-1.04 3.32 1 1 0 0 0 .72 1.19l.2.02c.43 0 .82-.32.91-.79.02-.1 2.4-10.37 10.85-16.38.44-.3.55-.92.26-1.38a.9.9 0 0 0-1.3-.28c-4.78 3.4-7.73 8-9.47 11.65-1.24-4.57-.91-8.37.99-11.3 3.74-5.77 12.62-7.16 17.98-7.45-1.15 1.8-2.41 5.1-2.41 10.93 0 3.12-.83 5.52-2.47 7.14-2.62 2.6-6.88 2.83-10 2.58-.5-.04-.96.38-1 .93a.98.98 0 0 0 .87 1.07c.62.05 1.28.08 1.98.08 3.17 0 6.87-.66 9.43-3.2 2.03-2 3.06-4.9 3.06-8.6 0-9.1 3.22-11.1 3.23-11.1.4-.21.6-.68.5-1.13Z" fill="#fff"></path></g><defs><clipPath id="icon-leaf_0"><path fill="#fff" transform="translate(25 24)" d="M0 0h30v32h-30z"></path></clipPath></defs></svg><svg viewBox="0 0 61 61" fill="none" id="icon-plus"><path stroke="#D3D3D3" stroke-width="2" d="M31.5.5v60m29-29h-60"></path></svg><svg viewBox="0 0 80 80" fill="none" id="icon-powder"><path fill="#68B738" d="M0 0h80v80h-80z"></path><path d="M37.88 26c-1.64 0-2.9 1.36-2.9 3.08s1.26 3.08 2.9 3.08c1.63 0 2.9-1.36 2.9-3.08s-1.27-3.08-2.9-3.08Zm0 1.18c1 0 1.72.84 1.72 1.9 0 1-.8 1.9-1.73 1.9-1 0-1.72-.84-1.72-1.9 0-1 .78-1.9 1.73-1.9Zm-10.88 23.56c0 1.18.4 2.18 1.36 3 1 .84 2.17.77 2.17.77h19.04c.77 0 1.8-.38 2.62-1.45.85-1 .8-2.36.8-2.36v-17.21c0-.44-.12-.6-.75-.6-.64 0-.69.27-.69.59v17.22c-.02.3-.07 1.08-.74 1.72-.74.62-1.45.54-1.45.54s-18.13 0-19.03-.03a2.14 2.14 0 0 1-1.45-.9c-.51-.73-.41-1.63-.41-1.63v-17.22c0-.46-.24-.64-.73-.64s-.74.18-.74.58v17.62Zm16.31-16.31c-1.09.23-2.17.38-4.26 2.35-2.08 2-3.62 1.9-5.16 1.82-1.54-.1-3.17-1.54-3.45-1.9-.33-.36-.9-.12-1.08.11-.16.24-.16.64.1 1 1.27 1.18 2.45 2.08 4.72 2.26a7.5 7.5 0 0 0 5.89-2.26c1.45-1.45 2.17-1.72 3.26-1.9a6.3 6.3 0 0 1 5.08 1.26c1 1.1 1.26.78 1.54.48.54-.72-.23-1.27-1.1-1.9a7.24 7.24 0 0 0-5.52-1.28l-.02-.04Zm-9.06 7.16c-1.18 0-2.08 1-2.08 2.26 0 1.27.9 2.27 2.08 2.27 1.18 0 2.08-1 2.08-2.27s-.9-2.26-2.08-2.26Zm11.78.78c-1.54 0-2.8 1.36-2.8 2.99 0 1.63 1.26 2.99 2.8 2.99 1.54 0 2.81-1.36 2.81-3 0-1.62-1.27-2.98-2.8-2.98Zm0 1.45c.8 0 1.45.7 1.45 1.54a1.5 1.5 0 0 1-1.45 1.54c-.8 0-1.45-.7-1.45-1.54 0-.86.65-1.54 1.45-1.54Z" fill="#fff"></path></svg><svg viewBox="0 0 32 12" fill="none" id="icon-raw"><path stroke="#000" stroke-width="2" d="M0 6h18"></path><path d="m24 6-6.75 5.2v-10.4l6.75 5.2Z" fill="#000"></path></svg><svg viewBox="0 0 30 32" fill="none" id="leaf"><g clip-path="url(#leaf_0)"><path d="M27.78 2.77a.95.95 0 0 0-.92-.77c-4.94.03-16.95.92-21.8 8.38-2.51 3.88-2.73 8.91-.64 14.96l.07.13a25.93 25.93 0 0 0-1.04 3.32 1 1 0 0 0 .72 1.19l.2.02c.43 0 .82-.32.91-.79.02-.1 2.4-10.37 10.85-16.38.44-.3.55-.93.26-1.38a.9.9 0 0 0-1.3-.28c-4.78 3.4-7.73 8-9.47 11.65-1.24-4.57-.91-8.37.99-11.3 3.74-5.76 12.62-7.15 17.98-7.45-1.15 1.8-2.41 5.1-2.41 10.93 0 3.12-.83 5.52-2.47 7.14-2.62 2.6-6.88 2.83-10 2.58-.5-.04-.96.38-1 .93a.98.98 0 0 0 .87 1.07c.62.05 1.28.08 1.98.08 3.17 0 6.87-.66 9.43-3.2 2.03-2 3.06-4.9 3.06-8.6 0-9.1 3.22-11.1 3.23-11.1.4-.21.6-.68.5-1.13Z" fill="#fff"></path></g><defs><clipPath id="leaf_0"><path fill="#fff" d="M0 0h30v32h-30z"></path></clipPath></defs></svg><svg viewBox="0 0 26 29" fill="none" id="powder"><path d="M10.86 0c-1.63 0-2.9 1.37-2.9 3.1s1.27 3.1 2.9 3.1 2.9-1.37 2.9-3.1-1.27-3.1-2.9-3.1Zm0 1.19c1 0 1.72.84 1.72 1.91 0 1-.79 1.91-1.72 1.91-1 0-1.72-.84-1.72-1.91 0-1 .78-1.91 1.72-1.91Zm-10.86 23.7c0 1.19.4 2.19 1.36 3 1 .87 2.17.8 2.17.8h19c.78 0 1.82-.39 2.63-1.47.84-1 .79-2.37.79-2.37v-17.32c0-.44-.11-.6-.74-.6-.64 0-.7.27-.7.6v17.31a2.5 2.5 0 0 1-.73 1.74c-.74.63-1.45.54-1.45.54s-18.1 0-19-.02c-.35-.07-.91-.2-1.46-.92-.5-.72-.4-1.64-.4-1.64v-17.32c0-.46-.24-.64-.73-.64s-.74.18-.74.59v17.72Zm16.3-16.41c-1.1.24-2.18.38-4.26 2.37-2.08 2-3.62 1.91-5.16 1.82-1.54-.09-3.17-1.55-3.44-1.91-.34-.36-.9-.12-1.09.12-.15.23-.15.64.11 1 1.27 1.18 2.45 2.1 4.7 2.28a7.45 7.45 0 0 0 5.9-2.28c1.44-1.46 2.16-1.73 3.25-1.91a6.27 6.27 0 0 1 5.07 1.27c1 1.1 1.26.79 1.54.48.54-.72-.23-1.28-1.09-1.92a7.19 7.19 0 0 0-5.52-1.28l-.02-.04Zm-9.06 7.2c-1.18 0-2.08 1-2.08 2.28 0 1.28.9 2.28 2.08 2.28 1.18 0 2.08-1 2.08-2.28 0-1.28-.9-2.28-2.08-2.28Zm11.77.79c-1.54 0-2.8 1.36-2.8 3 0 1.65 1.26 3.01 2.8 3.01 1.54 0 2.8-1.36 2.8-3 0-1.65-1.26-3.01-2.8-3.01Zm0 1.45c.8 0 1.44.7 1.44 1.55 0 .87-.65 1.55-1.44 1.55-.8 0-1.45-.7-1.45-1.55 0-.86.65-1.55 1.45-1.55Z" fill="#fff"></path></svg><svg viewBox="0 0 32 12" fill="none" id="slash"><path stroke="#000" stroke-width="2" d="M0 6h18"></path><path d="m24 6-6.75 5.2v-10.4l6.75 5.2Z" fill="#000"></path></svg><svg viewBox="0 0 40 40" fill="none" id="slider-button"><rect x="1" y="1" width="38" height="38" rx="19" fill="white"></rect><rect x="1" y="1" width="38" height="38" rx="19" stroke="#666666" stroke-width="2"></rect><path d="M16 11L8 20L16 29V11Z" fill="#666666"></path><path d="M32 20L24 11V29L32 20Z" fill="#666666"></path></svg><svg viewBox="0 0 60 60" fill="none" id="square-background"><path fill="#68B738" d="M0 0h60v60h-60z"></path></svg><svg viewBox="0 0 28 22" fill="none" id="telegram-desctop"><path fill-rule="evenodd" clip-rule="evenodd" d="M23.46 3.15c.18.15.27.38.23.61l-2.63 15.76a.66.66 0 0 1-1.01.44l-7.88-5.25a.66.66 0 0 1-.15-.96l2.61-3.26-4.36 2.9a.66.66 0 0 1-.65.05l-5.26-2.63a.66.66 0 0 1 .08-1.2l18.38-6.57a.66.66 0 0 1 .64.11Zm-17.13 7.17 3.53 1.77 7.56-5.04a.66.66 0 0 1 .88.96l-4.8 6 6.43 4.3 2.28-13.66-15.88 5.67Z" fill="#666"></path></svg><svg viewBox="0 0 28 22" fill="none" id="telegram-mobile"><path fill-rule="evenodd" clip-rule="evenodd" d="M23.46 3.15c.18.15.27.38.23.61l-2.63 15.76a.66.66 0 0 1-1.01.44l-7.88-5.25a.66.66 0 0 1-.15-.96l2.61-3.26-4.36 2.9a.66.66 0 0 1-.65.05l-5.26-2.63a.66.66 0 0 1 .08-1.2l18.38-6.57a.66.66 0 0 1 .64.11Zm-17.13 7.17 3.53 1.77 7.56-5.04a.66.66 0 0 1 .88.96l-4.8 6 6.43 4.3 2.28-13.66-15.88 5.67Z" fill="#666"></path></svg><svg viewBox="0 0 28 22" fill="none" id="telegram-tablet"><path fill-rule="evenodd" clip-rule="evenodd" d="M23.46 3.15c.18.15.27.38.23.61l-2.63 15.76a.66.66 0 0 1-1.01.44l-7.88-5.25a.66.66 0 0 1-.15-.96l2.61-3.26-4.36 2.9a.66.66 0 0 1-.65.05l-5.26-2.63a.66.66 0 0 1 .08-1.2l18.38-6.57a.66.66 0 0 1 .64.11Zm-17.13 7.17 3.53 1.77 7.56-5.04a.66.66 0 0 1 .88.96l-4.8 6 6.43 4.3 2.28-13.66-15.88 5.67Z" fill="#666"></path></svg><svg viewBox="0 0 28 22" fill="none" id="vkontakte-desctop"><path d="M1 5.34c0-.86.52-1.32 1.55-1.38l3.97.02c.26 0 .44.13.53.38.4 1.26.86 2.34 1.37 3.25.5.92 1.17 1.97 1.99 3.16.07.15.18.23.34.23.13 0 .22-.06.3-.18l.07-.28.03-4.35c0-.3-.07-.5-.23-.6-.15-.1-.43-.18-.83-.23-.32-.05-.48-.23-.48-.55 0-.07 0-.12.02-.15.38-1.09 1.44-1.63 3.2-1.63l1.5-.03c.67 0 1.23.16 1.67.48.44.32.67.82.67 1.5v5.72c.12.08.24.12.34.12.27 0 .5-.15.7-.45 1.95-2.58 3-4.31 3.17-5.18a.3.3 0 0 1 .05-.13c.12-.25.33-.47.61-.65.29-.19.53-.31.75-.38a.55.55 0 0 1 .24-.05h4.13l.26.03c.36 0 .63.16.83.47.07.1.12.21.15.33a2.4 2.4 0 0 1 .06.55v.18a6.11 6.11 0 0 1-.94 2.2 23.4 23.4 0 0 1-1.93 2.53c-.79.9-1.27 1.5-1.47 1.78a.93.93 0 0 0-.24.56c0 .13.07.28.21.45l3.9 4.63c.2.26.31.56.31.88 0 .38-.16.7-.48.95-.32.25-.7.4-1.14.43l-.46.02h-4.04c-.02 0-.06 0-.11.02a.86.86 0 0 1-.1.01c-.4 0-.76-.16-1.1-.48-.12-.13-.96-1.12-2.5-2.97a1.39 1.39 0 0 0-.38-.32 38.47 38.47 0 0 0-.53 2.24l-.08.42a1.4 1.4 0 0 1-1.12 1.06l-.37.02h-2.61c-1.48 0-2.95-.63-4.41-1.9a19.3 19.3 0 0 1-3.96-4.95 47.51 47.51 0 0 1-3.28-7.05 1.92 1.92 0 0 1-.13-.73Zm16.01 6.51c-.37 0-.7-.1-1.01-.29a.9.9 0 0 1-.45-.79v-5.78c0-.34-.1-.58-.27-.72-.18-.14-.49-.21-.93-.21l-1.52.05c-.76 0-1.34.12-1.73.37.78.36 1.17.93 1.17 1.71v4.43a1.5 1.5 0 0 1-.53 1.04 1.6 1.6 0 0 1-1.07.42c-.53 0-.94-.24-1.22-.73a26.16 26.16 0 0 1-3.1-5.63l-.23-.66-3.55-.02c-.23 0-.36.01-.38.03-.03.03-.04.1-.04.22 0 .15.01.3.05.48l.56 1.4c1.49 3.64 3.11 6.51 4.86 8.6 1.75 2.1 3.47 3.15 5.16 3.15h2.66c.1 0 .19-.03.24-.09.05-.06.1-.17.13-.34l.06-.25.5-2.21c.15-.3.27-.5.38-.6.2-.2.42-.28.69-.28.43 0 .86.24 1.3.73l2.27 2.71c.14.22.3.33.45.33h4.4c.53 0 .8-.13.8-.38a.47.47 0 0 0-.08-.25l-3.87-4.55c-.3-.35-.45-.73-.45-1.13 0-.4.14-.8.43-1.16.23-.34.68-.9 1.34-1.67.67-.78 1.25-1.51 1.75-2.19.5-.68.82-1.3.98-1.85l.08-.33a.37.37 0 0 1-.02-.16.54.54 0 0 0-.03-.19h-4.18c-.27.1-.48.25-.64.45l-.16.48c-.45 1.16-1.6 2.94-3.5 5.36-.36.33-.8.5-1.3.5Z" fill="#666"></path></svg><svg viewBox="0 0 28 22" fill="none" id="vkontakte-mobile"><path d="M1 5.34c0-.86.52-1.32 1.55-1.38l3.97.02c.26 0 .44.13.53.38.4 1.26.86 2.34 1.37 3.25.5.92 1.17 1.97 1.99 3.16.07.15.18.23.34.23.13 0 .22-.06.3-.18l.07-.28.03-4.35c0-.3-.07-.5-.23-.6-.15-.1-.43-.18-.83-.23-.32-.05-.48-.23-.48-.55 0-.07 0-.12.02-.15.38-1.09 1.44-1.63 3.2-1.63l1.5-.03c.67 0 1.23.16 1.67.48.44.32.67.82.67 1.5v5.72c.12.08.24.12.34.12.27 0 .5-.15.7-.45 1.95-2.58 3-4.31 3.17-5.18a.3.3 0 0 1 .05-.13c.12-.25.33-.47.61-.65.29-.19.53-.31.75-.38a.55.55 0 0 1 .24-.05h4.13l.26.03c.36 0 .63.16.83.47.07.1.12.21.15.33a2.4 2.4 0 0 1 .06.55v.18a6.11 6.11 0 0 1-.94 2.2 23.4 23.4 0 0 1-1.93 2.53c-.79.9-1.27 1.5-1.47 1.78a.93.93 0 0 0-.24.56c0 .13.07.28.21.45l3.9 4.63c.2.26.31.56.31.88 0 .38-.16.7-.48.95-.32.25-.7.4-1.14.43l-.46.02h-4.04c-.02 0-.06 0-.11.02a.86.86 0 0 1-.1.01c-.4 0-.76-.16-1.1-.48-.12-.13-.96-1.12-2.5-2.97a1.39 1.39 0 0 0-.38-.32 38.47 38.47 0 0 0-.53 2.24l-.08.42a1.4 1.4 0 0 1-1.12 1.06l-.37.02h-2.61c-1.48 0-2.95-.63-4.41-1.9a19.3 19.3 0 0 1-3.96-4.95 47.51 47.51 0 0 1-3.28-7.05 1.92 1.92 0 0 1-.13-.73Zm16.01 6.51c-.37 0-.7-.1-1.01-.29a.9.9 0 0 1-.45-.79v-5.78c0-.34-.1-.58-.27-.72-.18-.14-.49-.21-.93-.21l-1.52.05c-.76 0-1.34.12-1.73.37.78.36 1.17.93 1.17 1.71v4.43a1.5 1.5 0 0 1-.53 1.04 1.6 1.6 0 0 1-1.07.42c-.53 0-.94-.24-1.22-.73a26.16 26.16 0 0 1-3.1-5.63l-.23-.66-3.55-.02c-.23 0-.36.01-.38.03-.03.03-.04.1-.04.22 0 .15.01.3.05.48l.56 1.4c1.49 3.64 3.11 6.51 4.86 8.6 1.75 2.1 3.47 3.15 5.16 3.15h2.66c.1 0 .19-.03.24-.09.05-.06.1-.17.13-.34l.06-.25.5-2.21c.15-.3.27-.5.38-.6.2-.2.42-.28.69-.28.43 0 .86.24 1.3.73l2.27 2.71c.14.22.3.33.45.33h4.4c.53 0 .8-.13.8-.38a.47.47 0 0 0-.08-.25l-3.87-4.55c-.3-.35-.45-.73-.45-1.13 0-.4.14-.8.43-1.16.23-.34.68-.9 1.34-1.67.67-.78 1.25-1.51 1.75-2.19.5-.68.82-1.3.98-1.85l.08-.33a.37.37 0 0 1-.02-.16.54.54 0 0 0-.03-.19h-4.18c-.27.1-.48.25-.64.45l-.16.48c-.45 1.16-1.6 2.94-3.5 5.36-.36.33-.8.5-1.3.5Z" fill="#666"></path></svg><svg viewBox="0 0 28 22" fill="none" id="vkontakte-tablet"><path d="M1 5.34c0-.86.52-1.32 1.55-1.38l3.97.02c.26 0 .44.13.53.38.4 1.26.86 2.34 1.37 3.25.5.92 1.17 1.97 1.99 3.16.07.15.18.23.34.23.13 0 .22-.06.3-.18l.07-.28.03-4.35c0-.3-.07-.5-.23-.6-.15-.1-.43-.18-.83-.23-.32-.05-.48-.23-.48-.55 0-.07 0-.12.02-.15.38-1.09 1.44-1.63 3.2-1.63l1.5-.03c.67 0 1.23.16 1.67.48.44.32.67.82.67 1.5v5.72c.12.08.24.12.34.12.27 0 .5-.15.7-.45 1.95-2.58 3-4.31 3.17-5.18a.3.3 0 0 1 .05-.13c.12-.25.33-.47.61-.65.29-.19.53-.31.75-.38a.55.55 0 0 1 .24-.05h4.13l.26.03c.36 0 .63.16.83.47.07.1.12.21.15.33a2.4 2.4 0 0 1 .06.55v.18a6.11 6.11 0 0 1-.94 2.2 23.4 23.4 0 0 1-1.93 2.53c-.79.9-1.27 1.5-1.47 1.78a.93.93 0 0 0-.24.56c0 .13.07.28.21.45l3.9 4.63c.2.26.31.56.31.88 0 .38-.16.7-.48.95-.32.25-.7.4-1.14.43l-.46.02h-4.04c-.02 0-.06 0-.11.02a.86.86 0 0 1-.1.01c-.4 0-.76-.16-1.1-.48-.12-.13-.96-1.12-2.5-2.97a1.39 1.39 0 0 0-.38-.32 38.47 38.47 0 0 0-.53 2.24l-.08.42a1.4 1.4 0 0 1-1.12 1.06l-.37.02h-2.61c-1.48 0-2.95-.63-4.41-1.9a19.3 19.3 0 0 1-3.96-4.95 47.51 47.51 0 0 1-3.28-7.05 1.92 1.92 0 0 1-.13-.73Zm16.01 6.51c-.37 0-.7-.1-1.01-.29a.9.9 0 0 1-.45-.79v-5.78c0-.34-.1-.58-.27-.72-.18-.14-.49-.21-.93-.21l-1.52.05c-.76 0-1.34.12-1.73.37.78.36 1.17.93 1.17 1.71v4.43a1.5 1.5 0 0 1-.53 1.04 1.6 1.6 0 0 1-1.07.42c-.53 0-.94-.24-1.22-.73a26.16 26.16 0 0 1-3.1-5.63l-.23-.66-3.55-.02c-.23 0-.36.01-.38.03-.03.03-.04.1-.04.22 0 .15.01.3.05.48l.56 1.4c1.49 3.64 3.11 6.51 4.86 8.6 1.75 2.1 3.47 3.15 5.16 3.15h2.66c.1 0 .19-.03.24-.09.05-.06.1-.17.13-.34l.06-.25.5-2.21c.15-.3.27-.5.38-.6.2-.2.42-.28.69-.28.43 0 .86.24 1.3.73l2.27 2.71c.14.22.3.33.45.33h4.4c.53 0 .8-.13.8-.38a.47.47 0 0 0-.08-.25l-3.87-4.55c-.3-.35-.45-.73-.45-1.13 0-.4.14-.8.43-1.16.23-.34.68-.9 1.34-1.67.67-.78 1.25-1.51 1.75-2.19.5-.68.82-1.3.98-1.85l.08-.33a.37.37 0 0 1-.02-.16.54.54 0 0 0-.03-.19h-4.18c-.27.1-.48.25-.64.45l-.16.48c-.45 1.16-1.6 2.94-3.5 5.36-.36.33-.8.5-1.3.5Z" fill="#666"></path></svg><svg viewBox="0 0 28 22" fill="none" id="youtube-desctop"><path d="m17.85 10.8-5.24-3.5a.65.65 0 0 0-1.01.55v6.98a.65.65 0 0 0 1.01.54l5.24-3.49a.65.65 0 0 0 0-1.09Zm-4.94 2.8v-4.53l3.4 2.27-3.4 2.27Zm12.48-8.56a2.4 2.4 0 0 0-1.45-1.63c-3.72-1.43-9.69-1.41-9.94-1.41s-6.22-.02-9.94 1.4a2.4 2.4 0 0 0-1.45 1.64 25.32 25.32 0 0 0-.61 6.3c0 3.26.33 5.22.61 6.3a2.4 2.4 0 0 0 1.45 1.63c3.72 1.43 9.69 1.4 9.94 1.4h.08c.75 0 6.31-.04 9.86-1.4a2.4 2.4 0 0 0 1.45-1.64c.28-1.07.61-3.03.61-6.3 0-3.25-.33-5.22-.61-6.29Zm-1.27 12.27a1.1 1.1 0 0 1-.65.74c-3.5 1.34-9.4 1.32-9.47 1.32-.07 0-5.98.02-9.47-1.32a1.09 1.09 0 0 1-.65-.74c-.27-1-.57-2.85-.57-5.97 0-3.12.3-4.97.57-5.97a1.1 1.1 0 0 1 .65-.74c3.5-1.34 9.4-1.32 9.47-1.32.07 0 5.98-.02 9.47 1.32a1.1 1.1 0 0 1 .65.74c.27 1 .57 2.85.57 5.97 0 3.12-.3 4.96-.57 5.97Z" fill="#666"></path></svg><svg viewBox="0 0 24 19" fill="none" id="youtube-mobile"><path d="m15.85 8.8-5.24-3.5a.65.65 0 0 0-1.01.55v6.98a.65.65 0 0 0 1.01.54l5.24-3.49a.65.65 0 0 0 0-1.09Zm-4.94 2.8v-4.53l3.4 2.27-3.4 2.27Zm12.48-8.56a2.4 2.4 0 0 0-1.45-1.63c-3.72-1.43-9.69-1.41-9.94-1.41s-6.22-.02-9.94 1.4a2.4 2.4 0 0 0-1.45 1.64 25.32 25.32 0 0 0-.61 6.3c0 3.26.33 5.22.61 6.3a2.4 2.4 0 0 0 1.45 1.63c3.72 1.43 9.69 1.4 9.94 1.4h.08c.75 0 6.31-.04 9.86-1.4a2.4 2.4 0 0 0 1.45-1.64c.28-1.07.61-3.03.61-6.3 0-3.25-.33-5.22-.61-6.29Zm-1.27 12.27a1.1 1.1 0 0 1-.65.74c-3.5 1.34-9.4 1.32-9.47 1.32-.07 0-5.98.02-9.47-1.32a1.09 1.09 0 0 1-.65-.74c-.27-1-.57-2.85-.57-5.97 0-3.12.3-4.97.57-5.97a1.1 1.1 0 0 1 .65-.74c3.5-1.34 9.4-1.32 9.47-1.32.07 0 5.98-.02 9.47 1.32a1.1 1.1 0 0 1 .65.74c.27 1 .57 2.85.57 5.97 0 3.12-.3 4.96-.57 5.97Z" fill="#666"></path></svg><svg viewBox="0 0 24 19" fill="none" id="youtube-tablet"><path d="m15.85 8.8-5.24-3.5a.65.65 0 0 0-1.01.55v6.98a.65.65 0 0 0 1.01.54l5.24-3.49a.65.65 0 0 0 0-1.09Zm-4.94 2.8v-4.53l3.4 2.27-3.4 2.27Zm12.48-8.56a2.4 2.4 0 0 0-1.45-1.63c-3.72-1.43-9.69-1.41-9.94-1.41s-6.22-.02-9.94 1.4a2.4 2.4 0 0 0-1.45 1.64 25.32 25.32 0 0 0-.61 6.3c0 3.26.33 5.22.61 6.3a2.4 2.4 0 0 0 1.45 1.63c3.72 1.43 9.69 1.4 9.94 1.4h.08c.75 0 6.31-.04 9.86-1.4a2.4 2.4 0 0 0 1.45-1.64c.28-1.07.61-3.03.61-6.3 0-3.25-.33-5.22-.61-6.29Zm-1.27 12.27a1.1 1.1 0 0 1-.65.74c-3.5 1.34-9.4 1.32-9.47 1.32-.07 0-5.98.02-9.47-1.32a1.09 1.09 0 0 1-.65-.74c-.27-1-.57-2.85-.57-5.97 0-3.12.3-4.97.57-5.97a1.1 1.1 0 0 1 .65-.74c3.5-1.34 9.4-1.32 9.47-1.32.07 0 5.98-.02 9.47 1.32a1.1 1.1 0 0 1 .65.74c.27 1 .57 2.85.57 5.97 0 3.12-.3 4.96-.57 5.97Z" fill="#666"></path></svg></svg>